<?xml version="1.0" encoding="utf-8"?>
<!-- Generator: Adobe Illustrator 18.0.0, SVG Export Plug-In . SVG Version: 6.00 Build 0)  -->
<!DOCTYPE svg PUBLIC "-//W3C//DTD SVG 1.1//EN" "http://www.w3.org/Graphics/SVG/1.1/DTD/svg11.dtd">
<svg version="1.1" id="Layer_1" xmlns="http://www.w3.org/2000/svg" xmlns:xlink="http://www.w3.org/1999/xlink" x="0px" y="0px"
	 viewBox="216 0 784.2 792" enable-background="new 216 0 784.2 792" xml:space="preserve">
<path fill="none" d="M216,0h792v792H216V0z"/>
<path fill="#FFFFFF" d="M751,327.2L629.3,144.5c-5.3-7.9-13.2-10.6-23.8-10.6c-10.6,0-18.5,2.6-23.8,10.6L462.5,327.2H330.1
	c-15.9,0-26.5,13.2-26.5,26.5c0,2.6,0,5.3,0,7.9l71.5,256.8c5.3,23.8,26.5,39.7,52.9,39.7h360c26.5,0,47.7-15.9,52.9-39.7
	l71.5-256.8v-7.9c0-15.9-13.2-26.5-26.5-26.5H751z M523.4,327.2l82.1-121.8l82.1,121.8H523.4z M605.4,549.5
	c-29.1,0-55.6-23.8-55.6-55.6s23.8-55.6,55.6-55.6c31.8,0,55.6,23.8,55.6,55.6S637.2,549.5,605.4,549.5z"/>
</svg>
